<svg width="12.379395" height="8.704590" viewBox="0 0 12.3794 8.70459" fill="none" xmlns="http://www.w3.org/2000/svg" xmlns:xlink="http://www.w3.org/1999/xlink">
	<desc>
			Created with Pixso.
	</desc>
	<defs/>
	<path id="Vector" d="M12.37 1.03C11.91 1.21 11.42 1.32 10.91 1.37C11.45 1.1 11.84 0.67 12.03 0.16C11.53 0.41 10.99 0.59 10.42 0.69C10.04 0.34 9.53 0.1 8.98 0.02C8.43 -0.05 7.86 0.03 7.37 0.25C6.87 0.48 6.48 0.85 6.25 1.29C6.02 1.73 5.96 2.22 6.09 2.69C5.08 2.65 4.09 2.42 3.19 2.03C2.29 1.63 1.49 1.08 0.86 0.4C0.63 0.73 0.51 1.12 0.51 1.5C0.51 2.27 0.96 2.94 1.64 3.33C1.24 3.32 0.85 3.23 0.49 3.06L0.49 3.08C0.49 3.59 0.7 4.08 1.07 4.48C1.44 4.87 1.95 5.14 2.53 5.24C2.16 5.33 1.76 5.34 1.38 5.28C1.54 5.71 1.86 6.1 2.29 6.37C2.71 6.64 3.22 6.79 3.75 6.8C3.23 7.16 2.62 7.42 1.98 7.58C1.33 7.74 0.66 7.78 0 7.71C1.16 8.36 2.51 8.7 3.89 8.7C8.56 8.7 11.11 5.35 11.11 2.45C11.11 2.35 11.11 2.26 11.11 2.17C11.6 1.85 12.03 1.47 12.37 1.03L12.37 1.03Z" fill="#2B2B2B" fill-opacity="1.000000" fill-rule="nonzero"/>
</svg>
