<svg width="12.145996" height="10.503906" viewBox="0 0 12.146 10.5039" fill="none" xmlns="http://www.w3.org/2000/svg" xmlns:xlink="http://www.w3.org/1999/xlink">
	<desc>
			Created with Pixso.
	</desc>
	<defs/>
	<path id="Vector" d="M6.07 0C7.72 0 7.92 0 8.57 0.03C9.22 0.05 9.66 0.14 10.05 0.27C10.45 0.4 10.78 0.58 11.12 0.88C11.43 1.14 11.67 1.46 11.82 1.81C11.97 2.14 12.07 2.52 12.1 3.08C12.13 3.64 12.14 3.82 12.14 5.25C12.14 6.67 12.14 6.85 12.1 7.41C12.07 7.97 11.97 8.35 11.82 8.69C11.67 9.04 11.43 9.36 11.12 9.62C10.82 9.88 10.45 10.09 10.05 10.22C9.66 10.35 9.22 10.44 8.57 10.47C7.92 10.49 7.72 10.5 6.07 10.5C4.42 10.5 4.21 10.49 3.56 10.47C2.92 10.44 2.48 10.35 2.09 10.22C1.68 10.09 1.32 9.89 1.01 9.62C0.7 9.36 0.47 9.04 0.31 8.69C0.16 8.35 0.06 7.97 0.03 7.41C0 6.85 0 6.67 0 5.25C0 3.82 0 3.64 0.03 3.08C0.06 2.52 0.16 2.14 0.31 1.81C0.47 1.46 0.7 1.14 1.01 0.88C1.32 0.61 1.68 0.4 2.09 0.27C2.48 0.14 2.92 0.05 3.56 0.03C4.21 0 4.42 0 6.07 0ZM6.07 2.62C5.26 2.62 4.49 2.9 3.92 3.39C3.35 3.88 3.03 4.55 3.03 5.25C3.03 5.94 3.35 6.61 3.92 7.1C4.49 7.6 5.26 7.87 6.07 7.87C6.87 7.87 7.65 7.6 8.22 7.1C8.78 6.61 9.1 5.94 9.1 5.25C9.1 4.55 8.78 3.88 8.22 3.39C7.65 2.9 6.87 2.62 6.07 2.62ZM10.02 2.49C10.02 2.32 9.94 2.15 9.79 2.03C9.65 1.9 9.46 1.83 9.26 1.83C9.06 1.83 8.86 1.9 8.72 2.03C8.58 2.15 8.5 2.32 8.5 2.49C8.5 2.66 8.58 2.83 8.72 2.95C8.86 3.08 9.06 3.15 9.26 3.15C9.46 3.15 9.65 3.08 9.79 2.95C9.94 2.83 10.02 2.66 10.02 2.49ZM6.07 3.67C6.55 3.67 7.01 3.84 7.36 4.13C7.7 4.43 7.89 4.83 7.89 5.25C7.89 5.66 7.7 6.07 7.36 6.36C7.01 6.66 6.55 6.82 6.07 6.82C5.58 6.82 5.12 6.66 4.78 6.36C4.44 6.07 4.25 5.66 4.25 5.25C4.25 4.83 4.44 4.43 4.78 4.13C5.12 3.84 5.58 3.67 6.07 3.67Z" fill="#2B2B2B" fill-opacity="1.000000" fill-rule="nonzero"/>
</svg>
