<svg width="11.575195" height="9.454102" viewBox="0 0 11.5752 9.4541" fill="none" xmlns="http://www.w3.org/2000/svg" xmlns:xlink="http://www.w3.org/1999/xlink">
	<desc>
			Created with Pixso.
	</desc>
	<defs/>
	<path id="Vector" d="M2.42 1.05C2.42 1.32 2.3 1.59 2.07 1.79C1.84 1.99 1.53 2.1 1.21 2.1C0.89 2.1 0.58 1.98 0.35 1.79C0.12 1.59 0 1.32 0 1.04C0 0.77 0.12 0.5 0.35 0.3C0.58 0.11 0.89 0 1.21 0C1.53 0 1.84 0.11 2.07 0.3C2.3 0.5 2.42 0.77 2.42 1.05ZM2.46 2.87L0.03 2.87L0.03 9.45L2.46 9.45L2.46 2.87ZM6.3 2.87L3.88 2.87L3.88 9.45L6.27 9.45L6.27 6C6.27 4.08 9.17 3.9 9.17 6L9.17 9.45L11.57 9.45L11.57 5.28C11.57 2.04 7.28 2.16 6.27 3.76L6.3 2.87Z" fill="#2B2B2B" fill-opacity="1.000000" fill-rule="nonzero"/>
</svg>
