<svg width="12.145996" height="8.403320" viewBox="0 0 12.146 8.40332" fill="none" xmlns="http://www.w3.org/2000/svg" xmlns:xlink="http://www.w3.org/1999/xlink">
	<desc>
			Created with Pixso.
	</desc>
	<defs/>
	<path id="Vector" d="M11.86 1.31C12.14 2.24 12.14 4.2 12.14 4.2C12.14 4.2 12.14 6.15 11.86 7.09C11.71 7.6 11.26 8.01 10.69 8.15C9.65 8.4 6.07 8.4 6.07 8.4C6.07 8.4 2.49 8.4 1.45 8.15C0.88 8.01 0.43 7.6 0.27 7.09C0 6.15 0 4.2 0 4.2C0 4.2 0 2.24 0.27 1.31C0.43 0.79 0.88 0.38 1.45 0.25C2.49 0 6.07 0 6.07 0C6.07 0 9.65 0 10.69 0.25C11.26 0.38 11.71 0.79 11.86 1.31ZM4.85 6.04L8.5 4.2L4.85 2.36L4.85 6.04Z" fill="#2B2B2B" fill-opacity="1.000000" fill-rule="nonzero"/>
</svg>
