<svg width="12.145996" height="10.503906" viewBox="0 0 12.146 10.5039" fill="none" xmlns="http://www.w3.org/2000/svg" xmlns:xlink="http://www.w3.org/1999/xlink">
	<desc>
			Created with Pixso.
	</desc>
	<defs/>
	<path id="Vector" d="M10.92 5.02C10.87 4.2 10.54 3.4 9.96 2.74C9.79 2.9 9.6 3.05 9.41 3.19C8.8 3.63 8.12 3.99 7.39 4.25C7.5 4.43 7.59 4.61 7.67 4.78L7.67 4.78C7.69 4.83 7.72 4.88 7.74 4.92C8.66 4.83 9.63 4.87 10.57 4.98C10.69 4.99 10.81 5.01 10.92 5.02ZM5.22 1.11C5.81 1.83 6.36 2.58 6.86 3.35C7.6 3.1 8.21 2.78 8.71 2.42C8.88 2.3 9.04 2.17 9.19 2.03C8.32 1.39 7.21 1.04 6.07 1.05C5.78 1.05 5.5 1.07 5.22 1.11L5.22 1.11ZM1.36 4.2C1.78 4.19 2.19 4.16 2.6 4.13C3.6 4.05 4.59 3.91 5.56 3.7C5.05 2.94 4.5 2.2 3.91 1.48C3.29 1.75 2.74 2.13 2.3 2.6C1.86 3.07 1.54 3.61 1.36 4.2ZM2.29 7.89C2.53 7.59 2.84 7.26 3.25 6.89C4.13 6.11 5.17 5.5 6.38 5.17L6.42 5.16C6.32 4.97 6.22 4.79 6.13 4.63C5.01 4.91 3.84 5.09 2.67 5.18C2.1 5.23 1.59 5.25 1.21 5.25C1.21 6.21 1.59 7.14 2.29 7.89L2.29 7.89ZM7.89 9.14C7.66 8.12 7.33 7.12 6.9 6.14C5.69 6.52 4.72 7.08 3.97 7.75C3.67 8.01 3.4 8.3 3.17 8.62C4.01 9.16 5.02 9.45 6.07 9.45C6.69 9.45 7.31 9.35 7.89 9.14L7.89 9.14ZM9.03 8.58C9.98 7.95 10.62 7.04 10.84 6.02C10.64 5.97 10.38 5.93 10.09 5.9C9.45 5.82 8.8 5.81 8.16 5.88C8.52 6.76 8.81 7.66 9.03 8.58L9.03 8.58ZM6.07 10.5C2.71 10.5 0 8.15 0 5.25C0 2.35 2.71 0 6.07 0C9.42 0 12.14 2.35 12.14 5.25C12.14 8.15 9.42 10.5 6.07 10.5Z" fill="#2B2B2B" fill-opacity="1.000000" fill-rule="nonzero"/>
</svg>
